# xmcd
# 
# Track frame offsets:
#     150
#     18430
#     25947
#     34475
#     45962
#     56070
#     78070
#     98922
#     113592
#     130105
#     145740
#     156145
#     166755
#     176602
#     194350
#     200607
#     209760
#     215590
#     224380
#     243472
#     256420
# 
# Disc length: 3746
# 
# Revision: 3
# Processed by: cddbd v1.5.2PL0 Copyright (c) Steve Scherf et al.
# Submitted via: BonkEnc v1.0
# 
DISCID=2b0ea015
DTITLE=A Belén-M Ríos-V Manuel-JM Serrat - El Gusto Es Nuestro
DYEAR=1996
DGENRE=
TTITLE0=Hoy Puede Ser Un Gran Día (A, M, V, JM)
TTITLE1=El Río (JM)
TTITLE2=Sólo Le Pido A Dios (V)
TTITLE3=Penélope (M)
TTITLE4=Mientras El Cuerpo Aguante (A)
TTITLE5=Cruzar Los Brazos (M, V)
TTITLE6=Contamíname (A, M, V, JM)
TTITLE7=Me'n Vaig A Peu (V, JM)
TTITLE8=España Camisa Blanca (A, M)
TTITLE9=Marilyn Monroe (M)
TTITLE10=El Blues Del Autobús (V)
TTITLE11=Quiero Abrazarte Tanto (A)
TTITLE12=Cuelebre (JM)
TTITLE13=Cantares (M, JM)
TTITLE14=La Plaga (V)
TTITLE15=Estremécete (JM)
TTITLE16=La Locomoción (A)
TTITLE17=El Rock De La Cárcel (M)
TTITLE18=Paraules D'Amor (A, JM)
TTITLE19=Fiesta (A, M, V, JM)
TTITLE20=Himno A La Alegría (A, M, V, JM)
EXTD=
EXTT0=
EXTT1=
EXTT2=
EXTT3=
EXTT4=
EXTT5=
EXTT6=
EXTT7=
EXTT8=
EXTT9=
EXTT10=
EXTT11=
EXTT12=
EXTT13=
EXTT14=
EXTT15=
EXTT16=
EXTT17=
EXTT18=
EXTT19=
EXTT20=
PLAYORDER=
